<svg width="36" height="36" viewBox="0 0 36 36" fill="none" xmlns="http://www.w3.org/2000/svg">
<g clip-path="url(#clip0_1_2824)">
<rect width="36" height="36" rx="8" fill="url(#paint0_linear_1_2824)"/>
<g filter="url(#filter0_d_1_2824)">
<g clip-path="url(#clip1_1_2824)">
<path d="M36 4H11.95C9.1969 4 7.82035 4 6.76511 4.52728C5.79654 5.01124 5.01124 5.79654 4.52728 6.76511C4 7.82035 4 9.1969 4 11.95V36H36V4Z" fill="url(#paint1_linear_1_2824)"/>
<rect x="-0.2" y="0.2" width="4.6" height="4.6" rx="2.3" transform="matrix(-1 0 0 1 23.6 7)" fill="url(#paint2_linear_1_2824)" stroke="#6B7280" stroke-width="0.4"/>
<rect x="-0.2" y="0.2" width="4.6" height="4.6" rx="2.3" transform="matrix(-1 0 0 1 17.6 7)" fill="url(#paint3_linear_1_2824)" stroke="#6B7280" stroke-width="0.4"/>
<rect x="-0.2" y="0.2" width="4.6" height="4.6" rx="2.3" transform="matrix(-1 0 0 1 11.6 7)" fill="url(#paint4_linear_1_2824)" stroke="#6B7280" stroke-width="0.4"/>
<g filter="url(#filter1_d_1_2824)">
<path d="M25.4373 21.5207C25.6306 20.9983 26.3694 20.9983 26.5627 21.5207L27.5248 24.1207C27.5856 24.2849 27.7151 24.4144 27.8793 24.4752L30.4793 25.4373C31.0017 25.6306 31.0017 26.3694 30.4793 26.5627L27.8793 27.5248C27.7151 27.5856 27.5856 27.7151 27.5248 27.8793L26.5627 30.4793C26.3694 31.0017 25.6306 31.0017 25.4373 30.4793L24.4752 27.8793C24.4144 27.7151 24.2849 27.5856 24.1207 27.5248L21.5207 26.5627C20.9983 26.3694 20.9983 25.6306 21.5207 25.4373L24.1207 24.4752C24.2849 24.4144 24.4144 24.2849 24.4752 24.1207L25.4373 21.5207Z" fill="url(#paint5_linear_1_2824)"/>
</g>
</g>
</g>
</g>
<defs>
<filter id="filter0_d_1_2824" x="1.5" y="3" width="37" height="37" filterUnits="userSpaceOnUse" color-interpolation-filters="sRGB">
<feFlood flood-opacity="0" result="BackgroundImageFix"/>
<feColorMatrix in="SourceAlpha" type="matrix" values="0 0 0 0 0 0 0 0 0 0 0 0 0 0 0 0 0 0 127 0" result="hardAlpha"/>
<feOffset dy="1.5"/>
<feGaussianBlur stdDeviation="1.25"/>
<feComposite in2="hardAlpha" operator="out"/>
<feColorMatrix type="matrix" values="0 0 0 0 0 0 0 0 0 0 0 0 0 0 0 0 0 0 0.32 0"/>
<feBlend mode="normal" in2="BackgroundImageFix" result="effect1_dropShadow_1_2824"/>
<feBlend mode="normal" in="SourceGraphic" in2="effect1_dropShadow_1_2824" result="shape"/>
</filter>
<filter id="filter1_d_1_2824" x="14.1289" y="16.1289" width="23.7422" height="23.7422" filterUnits="userSpaceOnUse" color-interpolation-filters="sRGB">
<feFlood flood-opacity="0" result="BackgroundImageFix"/>
<feColorMatrix in="SourceAlpha" type="matrix" values="0 0 0 0 0 0 0 0 0 0 0 0 0 0 0 0 0 0 127 0" result="hardAlpha"/>
<feOffset dy="2"/>
<feGaussianBlur stdDeviation="3.5"/>
<feComposite in2="hardAlpha" operator="out"/>
<feColorMatrix type="matrix" values="0 0 0 0 0 0 0 0 0 0 0 0 0 0 0 0 0 0 0.7 0"/>
<feBlend mode="normal" in2="BackgroundImageFix" result="effect1_dropShadow_1_2824"/>
<feBlend mode="normal" in="SourceGraphic" in2="effect1_dropShadow_1_2824" result="shape"/>
</filter>
<linearGradient id="paint0_linear_1_2824" x1="18" y1="0" x2="18" y2="36" gradientUnits="userSpaceOnUse">
<stop stop-color="#76A9FA"/>
<stop offset="1" stop-color="#1C64F2"/>
</linearGradient>
<linearGradient id="paint1_linear_1_2824" x1="20" y1="10.4" x2="20" y2="36" gradientUnits="userSpaceOnUse">
<stop stop-color="#4B5563"/>
<stop offset="1" stop-color="#111928"/>
</linearGradient>
<linearGradient id="paint2_linear_1_2824" x1="2.5" y1="0" x2="2.5" y2="5" gradientUnits="userSpaceOnUse">
<stop stop-color="#111928"/>
<stop offset="1" stop-color="#4B5563"/>
</linearGradient>
<linearGradient id="paint3_linear_1_2824" x1="2.5" y1="0" x2="2.5" y2="5" gradientUnits="userSpaceOnUse">
<stop stop-color="#111928"/>
<stop offset="1" stop-color="#4B5563"/>
</linearGradient>
<linearGradient id="paint4_linear_1_2824" x1="2.5" y1="0" x2="2.5" y2="5" gradientUnits="userSpaceOnUse">
<stop stop-color="#111928"/>
<stop offset="1" stop-color="#4B5563"/>
</linearGradient>
<linearGradient id="paint5_linear_1_2824" x1="25.9999" y1="22.97" x2="25.9999" y2="29.1875" gradientUnits="userSpaceOnUse">
<stop stop-color="#F8FEFC"/>
<stop offset="1" stop-color="#BFC8D7"/>
</linearGradient>
<clipPath id="clip0_1_2824">
<rect width="36" height="36" rx="8" fill="white"/>
</clipPath>
<clipPath id="clip1_1_2824">
<path d="M36 4H11.95C9.1969 4 7.82035 4 6.76511 4.52728C5.79654 5.01124 5.01124 5.79654 4.52728 6.76511C4 7.82035 4 9.1969 4 11.95V36H36V4Z" fill="white"/>
</clipPath>
</defs>
</svg>
